<svg width="17" height="17" viewBox="0 0 17 17" fill="none" xmlns="http://www.w3.org/2000/svg">
<path d="M11.0719 11.1294L9.2619 16.1194C9.21691 16.2395 9.13631 16.3431 9.03087 16.4162C8.92544 16.4893 8.8002 16.5285 8.6719 16.5285C8.5436 16.5285 8.41835 16.4893 8.31292 16.4162C8.20749 16.3431 8.12688 16.2395 8.0819 16.1194L6.2819 11.1294C6.24926 11.0438 6.19836 10.9663 6.13273 10.9024C6.0671 10.8385 5.98833 10.7897 5.9019 10.7594L0.911896 8.94937C0.787119 8.90908 0.678328 8.83026 0.601161 8.72425C0.523993 8.61824 0.482422 8.49049 0.482422 8.35937C0.482422 8.22825 0.523993 8.1005 0.601161 7.99449C0.678328 7.88848 0.787119 7.80966 0.911896 7.76937L5.9019 5.96937C5.98749 5.93674 6.06493 5.88583 6.12883 5.8202C6.19274 5.75457 6.24156 5.6758 6.2719 5.58937L8.0819 0.59937C8.12688 0.479216 8.20749 0.375661 8.31292 0.302555C8.41835 0.229449 8.5436 0.190277 8.6719 0.190277C8.8002 0.190277 8.92544 0.229449 9.03087 0.302555C9.13631 0.375661 9.21691 0.479216 9.2619 0.59937L11.0619 5.58937C11.0945 5.67496 11.1454 5.7524 11.2111 5.81631C11.2767 5.88021 11.3555 5.92903 11.4419 5.95937L16.4319 7.76937C16.552 7.81436 16.6556 7.89496 16.7287 8.00039C16.8018 8.10583 16.841 8.23107 16.841 8.35937C16.841 8.48767 16.8018 8.61291 16.7287 8.71835C16.6556 8.82378 16.552 8.90438 16.4319 8.94937L11.4419 10.7494C11.3563 10.782 11.2789 10.8329 11.215 10.8985C11.1511 10.9642 11.1022 11.0429 11.0719 11.1294Z" fill="#FFC017"/>
</svg>
